# xmcd
#
# Track frame offsets: 
#        150
#        16337
#        32205
#        53815
#        74668
#        94578
#        107410
#        125616
#        145389
#        166285
#        184953
#        200196
#        215822
#        233156
#        247318
#        269821
#        288623
#        305624
#        325584
#        344993
#
# Disc length: 4799 seconds
#
# Revision: 2
# Processed by: cddbd v1.5.2PL0 Copyright (c) Steve Scherf et al.
# Submitted via: ExactAudioCopyFreeDBPlugin 1.0
#
DISCID=5012bd14
DTITLE=Earth Wind and Fire - Ultimate Collection
DYEAR=2014
DGENRE=
TTITLE0=September
TTITLE1=Lets Groove
TTITLE2=Boogie Wonderland
TTITLE3=Fantasy
TTITLE4=After the love has gone
TTITLE5=Shining star
TTITLE6=Saturday nite
TTITLE7=Star
TTITLE8=I've had enough
TTITLE9=Let me talk
TTITLE10=Sing a Song
TTITLE11=Cant let go
TTITLE12=Serpentine fire
TTITLE13=Thats the way of the world
TTITLE14=Reasons
TTITLE15=Got to get you into my life
TTITLE16=Getaway
TTITLE17=In the stone
TTITLE18=Sign on
TTITLE19=My promise
EXTD=
EXTT0=
EXTT1=
EXTT2=
EXTT3=
EXTT4=
EXTT5=
EXTT6=
EXTT7=
EXTT8=
EXTT9=
EXTT10=
EXTT11=
EXTT12=
EXTT13=
EXTT14=
EXTT15=
EXTT16=
EXTT17=
EXTT18=
EXTT19=
PLAYORDER=
